<svg xmlns="http://www.w3.org/2000/svg" width="51.911" height="64" viewBox="0 0 51.911 64"><g transform="translate(-189.915 -3311.173)"><path d="M9,5A4,4,0,0,0,5,9V52.156a4,4,0,0,0,4,4H42.911a4,4,0,0,0,4-4V9a4,4,0,0,0-4-4H9M9,0H42.911a9,9,0,0,1,9,9V52.156a9,9,0,0,1-9,9H9a9,9,0,0,1-9-9V9A9,9,0,0,1,9,0Z" transform="translate(189.915 3314.018)" fill="#fff"/><rect width="22.756" height="11.378" rx="5.689" transform="translate(204.849 3311.173)" fill="#ff9f0b"/><path d="M5.689,4a1.689,1.689,0,1,0,0,3.378H17.067a1.689,1.689,0,1,0,0-3.378H5.689m0-4H17.067a5.689,5.689,0,1,1,0,11.378H5.689A5.689,5.689,0,1,1,5.689,0Z" transform="translate(204.849 3311.173)" fill="#fff"/><path d="M0,18.235a2.5,2.5,0,0,1-.791-.129,2.5,2.5,0,0,1-1.581-3.162L2.873-.791A2.5,2.5,0,0,1,6.035-2.372,2.5,2.5,0,0,1,7.616.791L2.372,16.524A2.5,2.5,0,0,1,0,18.235Z" transform="translate(210.626 3334.323)" fill="#fff"/><path d="M0,10.368a2.5,2.5,0,0,1-.791-.129A2.5,2.5,0,0,1-2.372,7.076L.251-.791A2.5,2.5,0,0,1,3.413-2.372,2.5,2.5,0,0,1,4.994.791L2.372,8.657A2.5,2.5,0,0,1,0,10.368Z" transform="translate(216.526 3350.057)" fill="#fff"/><path d="M0,4.14a2.5,2.5,0,0,1-.76-.119A2.5,2.5,0,0,1-2.382.88L-1.86-.759A2.5,2.5,0,0,1,1.282-2.382,2.5,2.5,0,0,1,2.9.759L2.382,2.4A2.5,2.5,0,0,1,0,4.14Z" transform="translate(221.249 3342.845)" fill="#fff"/></g></svg>