<svg xmlns="http://www.w3.org/2000/svg" width="58.523" height="69.286" viewBox="0 0 58.523 69.286"><g transform="translate(-1207 -3803.686)"><path d="M7.009,9.509a2.492,2.492,0,0,1-1.768-.732L-1.768,1.768a2.5,2.5,0,0,1,0-3.536,2.5,2.5,0,0,1,3.536,0L8.777,5.241A2.5,2.5,0,0,1,7.009,9.509Z" transform="translate(1209.5 3815.045)" fill="#fff"/><path d="M7.009,9.509a2.492,2.492,0,0,1-1.768-.732L-1.768,1.768a2.5,2.5,0,0,1,0-3.536,2.5,2.5,0,0,1,3.536,0L8.777,5.241A2.5,2.5,0,0,1,7.009,9.509Z" transform="translate(1236.27 3807.222) rotate(45)" fill="#fff"/><path d="M7.009,9.509a2.492,2.492,0,0,1-1.768-.732L-1.768,1.768a2.5,2.5,0,0,1,0-3.536,2.5,2.5,0,0,1,3.536,0L8.777,5.241A2.5,2.5,0,0,1,7.009,9.509Z" transform="translate(1263.023 3815.045) rotate(90)" fill="#fff"/><path d="M45.024,32.4a1.75,1.75,0,0,1,1.391.689l8.349,10.943a1.75,1.75,0,0,1-.02,2.149L31.064,76.027a1.75,1.75,0,0,1-1.371.662h0a1.75,1.75,0,0,1-1.371-.664L4.7,46.176a1.75,1.75,0,0,1-.013-2.156l8.446-10.938a1.75,1.75,0,0,1,1.385-.68Zm6.132,12.672-7-9.172-28.785,0L8.289,45.077,29.694,72.121Z" transform="translate(1206.618 3796.283)" fill="#fff"/><path d="M6466.542,3870.8l-7.107-28.917-7.51-10.155,2.814-2.081,7.927,10.719.083.341,5.458,22.208,5.331-22.56.231-.3,8.055-10.437,2.771,2.138-7.824,10.137-6.827,28.891Z" transform="translate(-5231.833 0.406)" fill="#fff"/><path d="M6486.247,3848.606H6441.9v-3.5h44.344Z" transform="translate(-5227.687 -5.46)" fill="#fff"/></g></svg>