<svg xmlns="http://www.w3.org/2000/svg" width="60" height="64" viewBox="0 0 60 64"><path d="M296,248.369V242a26,26,0,1,0-52,0v6.369A5.99,5.99,0,0,0,240,254v4a6.006,6.006,0,0,0,6,6h2.369A5.989,5.989,0,0,0,254,268h4a4,4,0,0,0,4-4V248a4,4,0,0,0-4-4h-4a5.989,5.989,0,0,0-5.631,4H248v-6a22,22,0,1,1,44,0v6h-.369A5.99,5.99,0,0,0,286,244h-4a4,4,0,0,0-4,4v16a4,4,0,0,0,4,4h4a5.989,5.989,0,0,0,5.631-4H292v4a4,4,0,0,1-4,4H277.631A5.99,5.99,0,0,0,272,268h-2a6,6,0,1,0,0,12h2a5.989,5.989,0,0,0,5.631-4H288a8.009,8.009,0,0,0,8-8v-4.369A5.99,5.99,0,0,0,300,258v-4a5.989,5.989,0,0,0-4-5.631ZM244,258v-4a2,2,0,0,1,2-2h2v8h-2A2,2,0,0,1,244,258Zm8-8a2,2,0,0,1,2-2h4v16h-4a2,2,0,0,1-2-2Zm20,26h-2a2,2,0,1,1,0-4h2a2,2,0,1,1,0,4Zm16-14a2,2,0,0,1-2,2h-4l0-16h4a2,2,0,0,1,2,2Zm8-4a2,2,0,0,1-2,2h-2v-8h2a2,2,0,0,1,2,2Z" transform="translate(-240 -216)" fill="#fff"/></svg>