<svg xmlns="http://www.w3.org/2000/svg" width="74.643" height="58.729" viewBox="0 0 74.643 58.729"><g transform="translate(-353 -3818)"><path d="M9,5A4,4,0,0,0,5,9V40.934a4,4,0,0,0,4,4H65.643a4,4,0,0,0,4-4V9a4,4,0,0,0-4-4H9M9,0H65.643a9,9,0,0,1,9,9V40.934a9,9,0,0,1-9,9H9a9,9,0,0,1-9-9V9A9,9,0,0,1,9,0Z" transform="translate(353 3818)" fill="#fff"/><path d="M1.823,10.339a1.823,1.823,0,1,1,0-3.647h9.531V0h5.089V6.692h9.532a1.823,1.823,0,0,1,0,3.647Z" transform="translate(376.68 3866.389)" fill="#fff"/><rect width="3.603" height="22.65" rx="1.802" transform="translate(377.704 3828.32) rotate(43)" fill="#fff"/><rect width="3.603" height="13.384" rx="1.802" transform="translate(385.808 3832.522) rotate(43)" fill="#fff"/><rect width="3.603" height="4.318" rx="1.802" transform="translate(391.98 3826.283) rotate(43)" fill="#fff"/></g></svg>