<svg xmlns="http://www.w3.org/2000/svg" width="64" height="64" viewBox="0 0 64 64"><path d="M248,280c-2.236,0-3.809-1.678-5.2-3.157a7.555,7.555,0,0,0-2.051-1.79,7.524,7.524,0,0,0-2.814.526c-1.9.573-4.068,1.222-5.943.135-1.9-1.1-2.418-3.312-2.875-5.267a7.438,7.438,0,0,0-.918-2.647,7.43,7.43,0,0,0-2.65-.919c-1.953-.458-4.168-.978-5.266-2.876-1.084-1.875-.438-4.035.135-5.942a7.5,7.5,0,0,0,.527-2.812,7.583,7.583,0,0,0-1.791-2.055c-1.481-1.388-3.157-2.962-3.157-5.2s1.676-3.808,3.156-5.2a7.592,7.592,0,0,0,1.791-2.053,7.54,7.54,0,0,0-.527-2.813c-.572-1.907-1.219-4.067-.137-5.942,1.1-1.9,3.316-2.419,5.27-2.877a7.424,7.424,0,0,0,2.648-.918,7.458,7.458,0,0,0,.918-2.649c.459-1.953.979-4.168,2.875-5.266,1.875-1.084,4.039-.437,5.945.135a7.461,7.461,0,0,0,2.812.527,7.569,7.569,0,0,0,2.051-1.79c1.389-1.48,2.962-3.158,5.2-3.158s3.809,1.678,5.2,3.157a7.555,7.555,0,0,0,2.051,1.79,7.534,7.534,0,0,0,2.814-.526c1.906-.571,4.07-1.22,5.943-.135,1.9,1.1,2.418,3.312,2.875,5.267a7.438,7.438,0,0,0,.918,2.647,7.431,7.431,0,0,0,2.65.919c1.953.458,4.168.978,5.266,2.876,1.084,1.875.438,4.035-.135,5.942a7.5,7.5,0,0,0-.527,2.812,7.582,7.582,0,0,0,1.791,2.055c1.481,1.388,3.157,2.962,3.157,5.2s-1.676,3.808-3.156,5.2a7.593,7.593,0,0,0-1.791,2.053,7.543,7.543,0,0,0,.527,2.813c.572,1.907,1.219,4.067.137,5.942-1.1,1.9-3.316,2.419-5.27,2.877a7.424,7.424,0,0,0-2.648.918,7.458,7.458,0,0,0-.918,2.649c-.459,1.953-.979,4.168-2.875,5.266-1.873,1.086-4.037.438-5.945-.135a7.475,7.475,0,0,0-2.812-.527,7.57,7.57,0,0,0-2.051,1.79C251.809,278.322,250.236,280,248,280Zm-7.545-8.978a5.15,5.15,0,0,1,1.328.165,8.979,8.979,0,0,1,3.938,2.919c.664.708,1.775,1.894,2.279,1.894s1.615-1.186,2.279-1.894a8.971,8.971,0,0,1,3.938-2.919c1.654-.444,3.428.092,4.994.561.846.255,2.414.729,2.791.5.4-.231.766-1.787.984-2.717a6.786,6.786,0,0,1,6.546-6.548c.932-.219,2.488-.583,2.721-.985.219-.378-.252-1.947-.506-2.79a9.368,9.368,0,0,1-.559-5,8.986,8.986,0,0,1,2.918-3.938C274.815,249.614,276,248.5,276,248s-1.186-1.614-1.893-2.278a8.976,8.976,0,0,1-2.918-3.939,9.363,9.363,0,0,1,.559-4.994c.254-.843.725-2.412.5-2.791-.23-.4-1.848-.779-2.717-.983a6.788,6.788,0,0,1-6.548-6.547c-.217-.93-.582-2.486-.984-2.718-.377-.211-1.945.252-2.791.5a9.391,9.391,0,0,1-4.994.561,8.979,8.979,0,0,1-3.938-2.919c-.664-.709-1.775-1.9-2.279-1.9s-1.615,1.186-2.279,1.894a8.971,8.971,0,0,1-3.938,2.919,9.39,9.39,0,0,1-4.994-.561c-.844-.253-2.412-.726-2.791-.5-.4.231-.766,1.787-.984,2.717a6.786,6.786,0,0,1-6.546,6.548c-.932.219-2.488.583-2.721.985-.219.378.252,1.947.506,2.79a9.368,9.368,0,0,1,.559,5,8.986,8.986,0,0,1-2.918,3.938C221.186,246.386,220,247.5,220,248s1.186,1.614,1.893,2.278a8.976,8.976,0,0,1,2.918,3.939,9.363,9.363,0,0,1-.559,4.994c-.254.843-.725,2.412-.5,2.791.23.4,1.848.779,2.717.983a6.788,6.788,0,0,1,6.548,6.547c.217.93.582,2.486.984,2.718.379.219,1.947-.25,2.791-.5a13.136,13.136,0,0,1,3.667-.725ZM240,244a6,6,0,1,1,6-6,6.006,6.006,0,0,1-6,6Zm0-8a2,2,0,1,0,2,2,2,2,0,0,0-2-2Zm16,28a6,6,0,1,1,6-6A6.006,6.006,0,0,1,256,264Zm0-8a2,2,0,1,0,2,2A2,2,0,0,0,256,256Zm-18.586,5.414,24-24a2,2,0,0,0-2.828-2.828l-24,24a2,2,0,1,0,2.828,2.828Z" transform="translate(-216 -216)" fill="#fff"/></svg>