<svg xmlns="http://www.w3.org/2000/svg" width="64" height="59.742" viewBox="0 0 64 59.742"><path d="M59.875,120.295a10.087,10.087,0,0,1,5.649-1.765,9.852,9.852,0,0,1,9.463,6.991A2.057,2.057,0,0,0,77.035,127a2.142,2.142,0,0,0,2.048-1.483,9.683,9.683,0,0,1,7.344-6.779v25a4.174,4.174,0,0,1-4.166,4.166,4.129,4.129,0,0,1-4.166-4.166,2.119,2.119,0,0,0-4.237,0,8.4,8.4,0,1,0,16.807,0v-25a9.8,9.8,0,0,1,7.344,6.779A2.057,2.057,0,0,0,100.056,127a2.142,2.142,0,0,0,2.048-1.483,9.852,9.852,0,0,1,9.463-6.991,10.087,10.087,0,0,1,5.649,1.765,2.129,2.129,0,0,0,2.4,0,2.218,2.218,0,0,0,.918-2.189,32.714,32.714,0,0,0-63.909,0,1.987,1.987,0,0,0,.918,2.189,2.016,2.016,0,0,0,2.33,0Zm28.67-23.657a28.642,28.642,0,0,1,26.481,18.078,14.069,14.069,0,0,0-3.46-.424,14.213,14.213,0,0,0-11.511,5.861,14.024,14.024,0,0,0-11.511-5.861,14.213,14.213,0,0,0-11.511,5.861,14.254,14.254,0,0,0-14.971-5.438A28.748,28.748,0,0,1,88.545,96.638Z" transform="translate(-56.565 -92.401)" fill="#fff"/></svg>