<svg xmlns="http://www.w3.org/2000/svg" width="100.661" height="23.058" viewBox="0 0 100.661 23.058"><g transform="translate(0 0)"><g transform="translate(32.557 2.586)"><path d="M9.941,11.341c-1.178,0-2.793.08-4.157.08H4.534V.892C4.575-.21,6-.273,6.046-.992V-2c-.185-.991-.975-1.114-1.622-1.109-.19,0-.373.01-.529.01H-.173c-.154,0-.337-.01-.529-.01-.645,0-1.437.118-1.622,1.109V-.992C-2.28-.273-.852-.21-.812.892V1.6h0V12.06c.043.47-1.884.975-1.918,1.735v1.03a.84.84,0,0,0,.188.644,1.036,1.036,0,0,0,.726.185H7.266a.527.527,0,0,1,.082,0c.695-.025,1.15,1.305,2.562,1.315a2.058,2.058,0,0,0,.323-.025c1.142-.036,1.16-1.487,1.215-1.605.174-.45,0-2.282.177-3.674a.073.073,0,0,0,0-.018c-.064-.3-.721-.278-1.686-.3" transform="translate(2.729 3.113)"/></g><g transform="translate(43.964 7.686)"><path d="M6.352,8.533c-1.9,0-3.307-2.288-3.31-4.842.011-2.016,1-2.645,2.45-2.657,1.9,0,3.305,2.292,3.31,4.844-.01,2.016-1,2.645-2.45,2.655M5.922-2.342C.8-2.336-1.739.736-1.743,4.783S.8,11.905,5.922,11.913c5.115-.008,7.658-3.081,7.667-7.13C13.58.736,11.038-2.336,5.922-2.342" transform="translate(1.743 2.342)"/></g><g transform="translate(87.296 7.685)"><path d="M6.633,4.449c-1.831-.6-3.622-.88-3.59-1.794,0-.411.269-.758.919-.765a3.364,3.364,0,0,1,2.085.441c.437.441.637,1.405,1.612,1.412h.873c.565,0,.6-.3.817-1.328L9.639.843c-.02-1.215-2-2.057-5.186-2.064-2.927,0-5.859,1.374-5.859,4.557,0,2.318,1.856,3.283,3.676,3.894s3.622.927,3.59,1.781c0,.69-.657,1.03-1.284,1.06-.111,0-.216,0-.321,0-2.6,0-3.078-1.328-3.836-2.056A1.65,1.65,0,0,0-.3,7.861c-.061,0-.126-.01-.187-.01-.57,0-.808.372-1.107,1.735A8.883,8.883,0,0,0-1.821,11l.064,0h-.064c.043,1.579,3.805,2.254,6.051,2.27,3.63,0,6.074-1.5,6.08-4.735,0-2.493-1.857-3.486-3.677-4.088" transform="translate(1.821 1.221)"/></g><g transform="translate(73.207 7.464)"><path d="M7.894,3.758c-.136.388-1.165.647-2.429.658L2.4,4.431a3.744,3.744,0,0,1,3.361-2.57h0a2.752,2.752,0,0,1,1.04.2c.654.265,1.173.753,1.17,1.309a1.023,1.023,0,0,1-.079.385m1.314,3.82.018.061a3.084,3.084,0,0,0,2.482-3.394c0-.088,0-.18,0-.272-.033-1.055-1.34-5-6.292-5-.034,0-.074,0-.11,0-5.119.052-7.474,3.3-7.468,7.346S.382,13.437,5.5,13.443c3.058-.016,6.038-1.686,6.07-2.724-.016-.544-.811-2.1-1.6-2.131C9.3,8.6,8.118,9.83,5.835,9.83A3.607,3.607,0,0,1,2.646,7.642H9.208Z" transform="translate(2.167 1.032)"/></g><g transform="translate(83.622)"><path d="M2.883.835A2.555,2.555,0,0,0,.865-.229a2.482,2.482,0,0,0-.288.015A1.547,1.547,0,0,0-.731.9a2.57,2.57,0,0,0-.061.549A2.966,2.966,0,0,0-.234,3.1,14.047,14.047,0,0,0,1.4,4.957c.3.282.691.611,1.012.868.247.2.449.355.529.416.08-.061.283-.218.531-.416.321-.257.716-.586,1.011-.868A14.641,14.641,0,0,0,6.111,3.1a3.011,3.011,0,0,0,.55-1.684A2.471,2.471,0,0,0,6.606.9,1.55,1.55,0,0,0,5.3-.215a2.482,2.482,0,0,0-.288-.015A2.559,2.559,0,0,0,2.992.835a.064.064,0,0,1-.054.029h0A.064.064,0,0,1,2.883.835" transform="translate(0.791 0.229)" fill="#ed1d24"/></g><g transform="translate(58.14 7.981)"><path d="M11.634,0H6.882C5.981,0,5.514.439,5.5,1V2c.01.529.428.943,1.22.993,0,0,0,0,0,0,.432.059.472.328.485.64a4.377,4.377,0,0,1-.282.957L4.9,9.312S2.889,4.6,2.889,4.6a4.546,4.546,0,0,1-.28-.957c.011-.313.052-.581.485-.64v0C3.888,2.945,4.3,2.531,4.314,2V1C4.3.439,3.837,0,2.936,0H-1.816c-.9,0-1.364.439-1.378,1v.9c.011.5.38.9,1.088.984a.012.012,0,0,0,0,.007c.251.036.406.17.621.654l3.749,9.423a.973.973,0,0,0,1.006.691H6.548a.978.978,0,0,0,1.009-.691l3.749-9.423c.213-.483.37-.618.621-.654a.012.012,0,0,0,0-.007C12.633,2.8,13,2.4,13.011,1.9V1C13,.439,12.535,0,11.634,0" transform="translate(3.193)"/></g><g transform="translate(98.864 21.304)"><path d="M.6.655H.7C.809.655.9.619.9.528S.843.4.714.4A.468.468,0,0,0,.6.406ZM.6,1.147h-.2V.279A1.638,1.638,0,0,1,.73.244a.5.5,0,0,1,.3.07A.244.244,0,0,1,1.12.5.225.225,0,0,1,.94.71v.01A.253.253,0,0,1,1.1.934a.573.573,0,0,0,.067.213H.945A.7.7,0,0,1,.874.94C.86.844.806.8.693.8H.6ZM.73,0a.679.679,0,0,0-.672.7.677.677,0,0,0,.683.7.668.668,0,0,0,.667-.7A.676.676,0,0,0,.735,0ZM.742-.18A.877.877,0,1,1,.735,1.574a.884.884,0,0,1-.9-.88.886.886,0,0,1,.9-.875Z" transform="translate(0.166 0.18)"/></g><g transform="translate(0.17 5.338)"><path d="M8.646,13.572l.1-.138-.136.11c-.259-.179-.829-.572-1.518-1.068-.862-.618-2.079-1.517-2.981-2.29a37.892,37.892,0,0,1-4.816-4.9A7.388,7.388,0,0,1-2.373.841,6.481,6.481,0,0,1-2.2-.638,4.615,4.615,0,0,1,1.791-3.681c.3-.029.585-.044.863-.044A7.865,7.865,0,0,1,8.708-.869l.007-.007.061,0a7.871,7.871,0,0,1,6.051-2.853c.278,0,.565.015.862.044a4.555,4.555,0,0,1,3.99,3.045A6.2,6.2,0,0,1,19.841.773a7.537,7.537,0,0,1-1.649,4.516,39.972,39.972,0,0,1-4.816,4.9c-.906.775-2.121,1.674-2.981,2.29-.693.5-1.268.894-1.523,1.071l-.1.066Z" transform="translate(2.373 3.725)" fill="#ed1d24"/></g><g transform="translate(0 5.172)"><path d="M13.627,0A7.993,7.993,0,0,0,7.54,2.811,8,8,0,0,0,1.457,0C1.169,0,.872.015.577.044A4.725,4.725,0,0,0-3.559,3.219a6.582,6.582,0,0,0-.182,1.515,7.551,7.551,0,0,0,1.7,4.545A38.348,38.348,0,0,0,2.8,14.2c.907.776,2.128,1.679,2.991,2.3.693.5,1.268.894,1.525,1.071l.038.026.19.131L7.73,17.6l.033-.023c.256-.175.832-.573,1.53-1.075.862-.619,2.082-1.52,2.993-2.3a39.924,39.924,0,0,0,4.842-4.924,7.719,7.719,0,0,0,1.684-4.618,6.256,6.256,0,0,0-.17-1.446A4.724,4.724,0,0,0,14.505.044C14.21.015,13.915,0,13.627,0m0,.334c.272,0,.555.015.845.043a4.422,4.422,0,0,1,3.844,2.917,5.953,5.953,0,0,1,.161,1.369,7.35,7.35,0,0,1-1.617,4.414,39.565,39.565,0,0,1-4.791,4.873c-.868.742-2.029,1.605-2.971,2.282-.726.523-1.32.93-1.556,1.094-.236-.164-.832-.572-1.558-1.094-.94-.676-2.1-1.54-2.968-2.282A38.029,38.029,0,0,1-1.775,9.079,7.25,7.25,0,0,1-3.406,4.734a6.34,6.34,0,0,1,.174-1.44A4.424,4.424,0,0,1,.61.377C.9.349,1.183.334,1.457.334a7.785,7.785,0,0,1,5.928,2.8.191.191,0,0,0,.157.079.2.2,0,0,0,.159-.08,7.784,7.784,0,0,1,5.926-2.8" transform="translate(3.741)"/></g><g transform="translate(2.271 3.638)"><path d="M8.646,13.572c-.236-.162-.834-.573-1.559-1.1-.858-.616-2.074-1.514-2.983-2.292a38.264,38.264,0,0,1-4.816-4.9A7.407,7.407,0,0,1-2.373.841,6.387,6.387,0,0,1-2.2-.636,4.615,4.615,0,0,1,1.791-3.683c.3-.029.585-.043.863-.043A7.868,7.868,0,0,1,8.708-.87a8.093,8.093,0,0,1,6.118-2.855c.278,0,.565.015.862.043A4.616,4.616,0,0,1,19.676-.636,6.053,6.053,0,0,1,19.841.771a7.556,7.556,0,0,1-1.649,4.518,40.045,40.045,0,0,1-4.816,4.9c-.911.78-2.124,1.676-2.981,2.292-.729.523-1.324.934-1.561,1.1l-.1.064Z" transform="translate(2.373 3.725)" fill="#f58220"/></g><g transform="translate(2.101 3.471)"><path d="M13.627,0A7.993,7.993,0,0,0,7.542,2.809,8,8,0,0,0,1.457,0,8.721,8.721,0,0,0,.576.044,4.725,4.725,0,0,0-3.559,3.219a6.625,6.625,0,0,0-.182,1.515,7.565,7.565,0,0,0,1.7,4.545A38.245,38.245,0,0,0,2.8,14.2c.912.781,2.131,1.682,2.993,2.3.734.527,1.335.943,1.561,1.1l.188.128.188-.128c.116-.079.735-.5,1.564-1.1.86-.618,2.079-1.517,2.993-2.3a40.242,40.242,0,0,0,4.842-4.922,7.724,7.724,0,0,0,1.684-4.619,6.214,6.214,0,0,0-.17-1.446A4.722,4.722,0,0,0,14.505.044C14.207.015,13.912,0,13.627,0m0,.334c.274,0,.555.015.847.043a4.424,4.424,0,0,1,3.843,2.917,5.963,5.963,0,0,1,.161,1.369,7.358,7.358,0,0,1-1.615,4.414,39.863,39.863,0,0,1-4.793,4.873c-.868.742-2.029,1.607-2.971,2.282-.726.523-1.32.934-1.556,1.094-.236-.161-.832-.572-1.554-1.094-.943-.675-2.1-1.54-2.971-2.282a38.221,38.221,0,0,1-4.793-4.87A7.254,7.254,0,0,1-3.4,4.734a6.245,6.245,0,0,1,.172-1.44A4.424,4.424,0,0,1,.61.377,8.4,8.4,0,0,1,1.457.334a7.784,7.784,0,0,1,5.926,2.8.193.193,0,0,0,.157.08h0A.2.2,0,0,0,7.7,3.137a7.783,7.783,0,0,1,5.93-2.8" transform="translate(3.741)"/></g><g transform="translate(4.37 1.937)"><path d="M8.647,13.572c-.236-.162-.832-.573-1.559-1.094-1.258-.9-2.26-1.674-2.983-2.292A38.245,38.245,0,0,1-.711,5.29,7.407,7.407,0,0,1-2.374.841,6.458,6.458,0,0,1-2.195-.638,4.615,4.615,0,0,1,1.792-3.681c.3-.029.585-.044.863-.044A7.866,7.866,0,0,1,8.706-.872l0-.007.064.01a7.862,7.862,0,0,1,6.052-2.857c.278,0,.567.015.863.044A4.614,4.614,0,0,1,19.677-.636,6.053,6.053,0,0,1,19.843.771a7.552,7.552,0,0,1-1.649,4.518,39.684,39.684,0,0,1-4.816,4.9c-.722.618-1.726,1.389-2.983,2.292-.727.521-1.324.932-1.559,1.094l-.093.064Z" transform="translate(2.374 3.725)" fill="#ffe100"/></g><g transform="translate(4.203 1.77)"><path d="M13.627,0h0A7.993,7.993,0,0,0,7.542,2.809,8,8,0,0,0,1.457,0C1.172,0,.875.015.577.044A4.727,4.727,0,0,0-3.559,3.219a6.566,6.566,0,0,0-.182,1.515,7.566,7.566,0,0,0,1.7,4.547A38.45,38.45,0,0,0,2.8,14.206c.726.619,1.733,1.394,2.993,2.3.829.6,1.446,1.019,1.561,1.1l.19.128L7.73,17.6c.236-.162.834-.573,1.561-1.1,1.261-.906,2.269-1.681,2.994-2.3a39.639,39.639,0,0,0,4.842-4.924,7.715,7.715,0,0,0,1.684-4.618,6.214,6.214,0,0,0-.17-1.446A4.724,4.724,0,0,0,14.505.044C14.209.015,13.912,0,13.627,0m0,.334c.272,0,.555.015.847.043a4.417,4.417,0,0,1,3.841,2.917,5.864,5.864,0,0,1,.161,1.369,7.342,7.342,0,0,1-1.613,4.414,39.424,39.424,0,0,1-4.794,4.873c-.867.744-2.028,1.607-2.971,2.283-.726.521-1.32.932-1.554,1.093-.236-.161-.832-.572-1.556-1.093-.942-.676-2.1-1.54-2.971-2.283a38.172,38.172,0,0,1-4.791-4.87,7.267,7.267,0,0,1-1.63-4.347,6.165,6.165,0,0,1,.175-1.44A4.417,4.417,0,0,1,.61.377C.9.349,1.183.334,1.457.334a7.785,7.785,0,0,1,5.925,2.8.193.193,0,0,0,.159.082h0A.2.2,0,0,0,7.7,3.135a7.783,7.783,0,0,1,5.928-2.8" transform="translate(3.741)"/></g><g transform="translate(6.472 0.235)"><path d="M8.647,13.572c-.236-.162-.834-.572-1.559-1.094-1.258-.9-2.26-1.676-2.983-2.292a38.361,38.361,0,0,1-4.816-4.9A7.4,7.4,0,0,1-2.374.841,6.39,6.39,0,0,1-2.195-.636,4.616,4.616,0,0,1,1.792-3.681c.3-.029.585-.044.863-.044A7.873,7.873,0,0,1,8.708-.87a8.1,8.1,0,0,1,6.12-2.855c.278,0,.567.015.863.044A4.616,4.616,0,0,1,19.677-.636,6.074,6.074,0,0,1,19.843.771a7.552,7.552,0,0,1-1.649,4.518,39.845,39.845,0,0,1-4.816,4.9c-.717.613-1.72,1.384-2.983,2.292-.727.523-1.322.932-1.559,1.094l-.093.064Z" transform="translate(2.374 3.725)" fill="#ed1d24"/></g><g transform="translate(6.304 0.069)"><path d="M13.627,0h0A8,8,0,0,0,7.54,2.811,8,8,0,0,0,1.457,0C1.167,0,.87.015.576.044A4.725,4.725,0,0,0-3.559,3.219a6.614,6.614,0,0,0-.182,1.515,7.566,7.566,0,0,0,1.7,4.547A38.69,38.69,0,0,0,2.8,14.206c.724.619,1.73,1.392,2.991,2.3.688.5,1.274.9,1.563,1.1l.188.129.188-.129c.228-.154.832-.572,1.564-1.1,1.265-.909,2.272-1.684,2.993-2.3a40.012,40.012,0,0,0,4.842-4.925,7.723,7.723,0,0,0,1.684-4.618,6.225,6.225,0,0,0-.17-1.446A4.724,4.724,0,0,0,14.505.044C14.212.015,13.915,0,13.627,0m0,.334c.274,0,.555.015.847.043a4.422,4.422,0,0,1,3.843,2.917,5.963,5.963,0,0,1,.161,1.369,7.354,7.354,0,0,1-1.615,4.414,39.668,39.668,0,0,1-4.794,4.873c-.867.742-2.028,1.605-2.971,2.282-.726.523-1.32.932-1.556,1.093-.236-.161-.83-.57-1.556-1.093-.94-.676-2.1-1.54-2.968-2.282a38.1,38.1,0,0,1-4.793-4.87,7.256,7.256,0,0,1-1.63-4.347,6.165,6.165,0,0,1,.175-1.44A4.419,4.419,0,0,1,.61.377C.9.349,1.183.334,1.457.334a7.781,7.781,0,0,1,5.925,2.8.2.2,0,0,0,.159.08h0a.2.2,0,0,0,.157-.08,7.783,7.783,0,0,1,5.928-2.8" transform="translate(3.741 0)"/></g></g></svg>