<svg xmlns="http://www.w3.org/2000/svg" width="92.623" height="21.423" viewBox="0 0 92.623 21.423"><path d="M62.71,0H58.64V3.636H62.71Z" transform="translate(-2.602)"/><path d="M52.781,17.6V8.827h3.584V5.273H52.781V0H48.7V5.27H46.385V8.824H48.7V21.238h7.662V17.591Z" transform="translate(-2.058)"/><path d="M15.725,5.512H10.851L3.567,17.842H0V21.49H5.7l5.96-10.1v10.09h4.808L22.4,11.363V21.482h4.079V5.512h-4.9l-5.855,9.9Z" transform="translate(0 -0.245)"/><path d="M62.713,5.512H58.634v15.97h4.079V5.514Z" transform="translate(-2.601 -0.245)"/><path d="M62.71,0H58.64V3.639H62.71Z" transform="translate(-2.602)"/><path d="M37.356,5.318h-.031a8.025,8.025,0,0,0-7.91,8.17,8.025,8.025,0,0,0,7.91,8.17h.031a8.021,8.021,0,0,0,7.879-8.17A8.02,8.02,0,0,0,37.356,5.318Zm0,12.255h-.031a3.932,3.932,0,0,1-3.83-4.085A3.931,3.931,0,0,1,37.325,9.4h.031a3.969,3.969,0,0,1,3.8,4.085,3.93,3.93,0,0,1-3.8,4.082Z" transform="translate(-1.305 -0.236)"/><path d="M88.91,18.03a2.985,2.985,0,0,0,2.939-1.8h4.08a6.852,6.852,0,0,1-7.021,5.422,7.869,7.869,0,0,1-8.013-8.179A7.953,7.953,0,0,1,88.782,5.3c4.176,0,7.43,3.655,7.43,8.116,0,.464-.031.9-.061,1.208H85.078A3.6,3.6,0,0,0,88.91,18.03ZM85.2,11.711H92.2a3.391,3.391,0,0,0-3.4-2.788,3.5,3.5,0,0,0-3.587,2.788Z" transform="translate(-3.589 -0.235)"/><path d="M76.581,5.517,72.694,15.964,68.807,5.517H64.445l6.17,15.967H74.72L80.927,5.526H76.581Z" transform="translate(-2.859 -0.245)"/></svg>