<svg xmlns="http://www.w3.org/2000/svg" width="139.972" height="24.058" viewBox="0 0 139.972 24.058"><path d="M85.557,8.372a7.339,7.339,0,0,0-.741,3.358,7.532,7.532,0,0,0,.741,3.4,5.739,5.739,0,0,0,2.066,2.277,5.33,5.33,0,0,0,2.875.811,5.121,5.121,0,0,0,2.448-.564,4.266,4.266,0,0,0,1.64-1.488v1.848h3.189V1.34H94.586V7.268a4.536,4.536,0,0,0-1.752-1.4,5.179,5.179,0,0,0-2.313-.541,5.485,5.485,0,0,0-2.9.789A5.577,5.577,0,0,0,85.557,8.372Zm8.6,1.443a3.994,3.994,0,0,1,.449,1.961,4.125,4.125,0,0,1-.449,1.983,3.172,3.172,0,0,1-2.852,1.691A3.131,3.131,0,0,1,89.69,15a3.456,3.456,0,0,1-1.213-1.285,4.209,4.209,0,0,1-.449-1.983,3.944,3.944,0,0,1,.449-1.938A3.28,3.28,0,0,1,89.69,8.53a3.237,3.237,0,0,1,3.257.023A3.079,3.079,0,0,1,94.159,9.815ZM120,5.36a4.768,4.768,0,0,1,3.594,1.42,5.366,5.366,0,0,1,1.37,3.922v7.325h-3.145v-6.9a3.2,3.2,0,0,0-.741-2.277,2.6,2.6,0,0,0-2.022-.811,2.7,2.7,0,0,0-2.066.811,3.2,3.2,0,0,0-.742,2.277v6.9H113.1V5.541h3.144V7.1a4.265,4.265,0,0,1,1.6-1.262A4.926,4.926,0,0,1,120,5.36ZM112,5.6,104.294,24h-3.347l2.7-6.221L98.656,5.6h3.526l3.212,8.723L108.65,5.6ZM70.49,11.762A7.339,7.339,0,0,1,71.231,8.4a5.632,5.632,0,0,1,2.044-2.254,5.484,5.484,0,0,1,2.9-.789,4.99,4.99,0,0,1,2.426.563,4.922,4.922,0,0,1,1.685,1.42V5.563h3.167V18.05H80.282V16.225A4.757,4.757,0,0,1,78.6,17.69a5.12,5.12,0,0,1-2.448.563,5.33,5.33,0,0,1-2.875-.811,5.8,5.8,0,0,1-2.044-2.277A7.533,7.533,0,0,1,70.49,11.762Zm9.793.045a3.994,3.994,0,0,0-.449-1.961A3.079,3.079,0,0,0,78.62,8.584a3.237,3.237,0,0,0-3.257-.023,3.279,3.279,0,0,0-1.213,1.262,3.944,3.944,0,0,0-.449,1.938,4.21,4.21,0,0,0,.449,1.984,3.455,3.455,0,0,0,1.213,1.285,3.131,3.131,0,0,0,1.617.451,3.173,3.173,0,0,0,2.852-1.691A4.125,4.125,0,0,0,80.282,11.807Zm-12.6-5.883a4.457,4.457,0,0,0-1.572,1.555V5.541H62.963V18.028h3.144V11.807a3.26,3.26,0,0,1,.741-2.434,3.221,3.221,0,0,1,2.246-.7h.831V5.36A4.453,4.453,0,0,0,67.679,5.924ZM58.506,8.116v6.041a1.266,1.266,0,0,0,.292.924,1.578,1.578,0,0,0,1.033.27h1.46v2.66H59.315q-3.975,0-3.975-3.877V8.116H53.857V5.524h1.482V2.436h3.167V5.524h2.785V8.116Zm-5.589,4.637a7.468,7.468,0,0,0,.09-1.217,6.459,6.459,0,0,0-.787-3.223,5.28,5.28,0,0,0-2.18-2.186,6.466,6.466,0,0,0-3.169-.766,6.583,6.583,0,0,0-3.259.789,5.5,5.5,0,0,0-2.2,2.254,7.087,7.087,0,0,0-.787,3.4,7.038,7.038,0,0,0,.787,3.381,5.8,5.8,0,0,0,2.225,2.277,6.618,6.618,0,0,0,3.236.789A6.065,6.065,0,0,0,50.625,17.1a5.746,5.746,0,0,0,2.068-2.975H49.3a2.568,2.568,0,0,1-2.495,1.51,2.906,2.906,0,0,1-2.045-.766,3.109,3.109,0,0,1-.944-2.119ZM48.872,8.7a2.471,2.471,0,0,1,.877,1.938H43.838A3.1,3.1,0,0,1,44.8,8.674a2.866,2.866,0,0,1,1.978-.721A3.071,3.071,0,0,1,48.872,8.7ZM34.309,5.36a4.791,4.791,0,0,1,3.605,1.42A5.354,5.354,0,0,1,39.288,10.7v7.325H36.134v-6.9a3.2,3.2,0,0,0-.744-2.277,2.614,2.614,0,0,0-2.028-.811,2.715,2.715,0,0,0-2.073.811,3.2,3.2,0,0,0-.744,2.277v6.9H27.391V5.541h3.155V7.1a4.278,4.278,0,0,1,1.6-1.262A4.956,4.956,0,0,1,34.309,5.36Zm104.314,7.393a7.5,7.5,0,0,0,.09-1.217,6.462,6.462,0,0,0-.787-3.223,5.272,5.272,0,0,0-2.179-2.186,6.454,6.454,0,0,0-3.166-.766,6.577,6.577,0,0,0-3.257.789,5.5,5.5,0,0,0-2.2,2.254,7.091,7.091,0,0,0-.786,3.4,7.041,7.041,0,0,0,.786,3.381,5.793,5.793,0,0,0,2.224,2.277,6.61,6.61,0,0,0,3.234.789,6.061,6.061,0,0,0,3.751-1.149,5.744,5.744,0,0,0,2.066-2.975h-3.391a2.567,2.567,0,0,1-2.494,1.51,2.9,2.9,0,0,1-2.044-.766,3.109,3.109,0,0,1-.942-2.119ZM134.579,8.7a2.47,2.47,0,0,1,.876,1.938h-5.907a3.106,3.106,0,0,1,.965-1.961,2.866,2.866,0,0,1,1.977-.721A3.069,3.069,0,0,1,134.579,8.7Z" transform="translate(1.26 0.062)" fill-rule="evenodd"/><path d="M23.553,0a.182.182,0,0,1,.182.183L23.674,23.21a.965.965,0,0,1-.071.378.43.43,0,0,1-.108.176.606.606,0,0,1-.858,0L11.7,12.723,1.056,23.742A.607.607,0,0,1,0,23.333V.671A.611.611,0,0,1,.179.238a.606.606,0,0,1,.858,0L3.511,2.75,3.887.384A.364.364,0,0,1,4.536.2L6.929,3.024l.888-2.7a.333.333,0,0,1,.6-.08L10.345,3.07,11.733.225A.192.192,0,0,1,11.748.2a.182.182,0,0,1,.311.021l1.562,3.053,2-3.06a.182.182,0,0,1,.333.042l1.011,2.967L19.428.209l0,0a.153.153,0,0,1,.02-.02A.152.152,0,0,1,19.7.278l.534,3.059L23.422.055A.182.182,0,0,1,23.553,0ZM10,3.782l-1.759-2.6-.8,2.444L9.111,5.6ZM9.39,5.926l.856-1.777,1.422,2.105L10.8,7.586Zm-.633.4L7.166,4.443l-.5,1.511L8.187,7.493ZM6.142,5.419,6.66,3.844,4.484,1.27,4.146,3.394Zm-2.23-.551L5.723,6.7,1.65,19.091Zm-.636-.641L1.214,2.147V17.2ZM2,20.176,6.251,7.229l1.383,1.4ZM9.038,6.657l1.334,1.578-.58.886L8.488,7.8Zm1.6,1.894-.56.861,1.005,1.02.562-.689Zm1.254,1.484-.54.669.86.872.526-.541Zm1.372.461L12.37,9.442l.79-.979.853,1.262Zm-.251.865-.5.519,6.6,6.692Zm8.547,8.128L15.861,8.41,14.767,9.544Zm-7.308-9.411,5.266,7.795-5.981-7.055Zm.277-.882,1.136-1.168L14.826,6.4,13.63,7.88Zm-1.11-1.625,1.234-1.511L13.6,4l-1.274,1.96ZM11.9,6.6l-.842,1.3,1.064,1.255.821-1.006Zm.181-.985,1.311-2L11.9.713,10.592,3.432Zm-1.751,5.731-.915-.924L2.881,20.481ZM9.129,10.133l-1.189-1.2L2.435,20.355Zm2.264,2.285-.785-.792L3.07,20.971Zm3.5-6.654-1.076-2.1L15.732.718l.97,2.83Zm1.025,2L15.067,6.1l1.762-2.184.739,2.156Zm.2.382L22.68,20.983,17.712,6.494Zm3.939-4.079,2.984,16.969L17.987,6.21ZM19.972,3.6,17.843,5.789l-.75-2.2L19.454.66Zm.339.2,3.06,17.532V.634Z" transform="translate(0 0)" fill="#3db174" fill-rule="evenodd"/></svg>