<svg xmlns="http://www.w3.org/2000/svg" xmlns:xlink="http://www.w3.org/1999/xlink" width="136.423" height="25.563" viewBox="0 0 136.423 25.563"><defs><linearGradient id="a" x1="0.5" x2="0.5" y2="1" gradientUnits="objectBoundingBox"><stop offset="0" stop-color="#1f1569"/><stop offset="1" stop-color="#53277b"/></linearGradient></defs><path d="M9.754,8.028a3.137,3.137,0,0,1,2.3-.924,3.157,3.157,0,0,1,3.216,3.225,3.167,3.167,0,0,1-3.225,3.225A3.167,3.167,0,0,1,8.82,10.329,3.1,3.1,0,0,1,9.754,8.028Zm2.291-.217a2.377,2.377,0,0,0-1.76.724,2.456,2.456,0,0,0-.715,1.794,2.456,2.456,0,0,0,.715,1.8,2.513,2.513,0,0,0,3.524,0,2.444,2.444,0,0,0,.71-1.8,2.46,2.46,0,0,0-.71-1.8A2.381,2.381,0,0,0,12.045,7.811Zm9.969.633a1.537,1.537,0,0,1,1.206.478,1.944,1.944,0,0,1,.429,1.345v3.189h-.741V10.4q0-1.251-1.108-1.251a1.185,1.185,0,0,0-1.027.5,2.162,2.162,0,0,0-.357,1.286l.009,2.517h-.75V10.4q0-1.251-1.108-1.251a1.178,1.178,0,0,0-1.018.5,2.154,2.154,0,0,0-.357,1.286v2.517h-.741V8.542h.741v.929a1.694,1.694,0,0,1,1.6-1.027,1.624,1.624,0,0,1,.992.29,1.5,1.5,0,0,1,.545.836,1.748,1.748,0,0,1,1.688-1.126Zm5.417,0a1.709,1.709,0,0,1,1.3.5,1.947,1.947,0,0,1,.473,1.394v3.118h-.741V10.48q0-1.332-1.242-1.331a1.416,1.416,0,0,0-1.147.482,1.966,1.966,0,0,0-.406,1.3v2.517h-.741V8.542h.741v.975A1.82,1.82,0,0,1,27.432,8.444Zm3.047-1.921a.552.552,0,0,1,.741,0,.464.464,0,0,1,.147.348.477.477,0,0,1-.147.357.552.552,0,0,1-.741,0,.477.477,0,0,1-.148-.357A.466.466,0,0,1,30.478,6.523Zm0,6.932V8.542h.741v4.913ZM36,12.624l.134.616a2.793,2.793,0,0,1-1.331.313,1.664,1.664,0,0,1-1.286-.514,2.075,2.075,0,0,1-.473-1.462V9.239H32.1v-.7h.947V7.363l.741-.162V8.542h2.206v.7H33.788v2.308q0,1.322,1.143,1.322A3.388,3.388,0,0,0,36,12.624ZM39.63,8.444a2.4,2.4,0,0,1,.308.017V9.22a2.759,2.759,0,0,0-.313-.018,1.655,1.655,0,0,0-1.268.5,2.008,2.008,0,0,0-.473,1.425v2.323h-.741V8.542h.741v1.1A1.743,1.743,0,0,1,39.63,8.444Zm5.136.1h.741v4.913h-.741v-.992a2.185,2.185,0,0,1-.782.8,2.257,2.257,0,0,1-2.761-.429A2.633,2.633,0,0,1,40.574,11a2.636,2.636,0,0,1,.65-1.836,2.175,2.175,0,0,1,3.542.389V8.542Zm-1.751,4.3a1.671,1.671,0,0,0,1.26-.523,1.839,1.839,0,0,0,.5-1.326,1.842,1.842,0,0,0-.5-1.327,1.67,1.67,0,0,0-1.26-.522A1.563,1.563,0,0,0,41.8,9.67,1.909,1.909,0,0,0,41.329,11a1.922,1.922,0,0,0,.473,1.331A1.573,1.573,0,0,0,43.016,12.846Zm6.155.707A2.5,2.5,0,0,1,46.63,11a2.5,2.5,0,0,1,2.54-2.558,2.509,2.509,0,0,1,1.536.491,2.192,2.192,0,0,1,.849,1.322h-.768a1.57,1.57,0,0,0-.607-.816,1.731,1.731,0,0,0-1.009-.3,1.7,1.7,0,0,0-1.282.527,1.86,1.86,0,0,0-.5,1.34,1.86,1.86,0,0,0,.5,1.34,1.819,1.819,0,0,0,2.287.223,1.624,1.624,0,0,0,.612-.822h.768a2.22,2.22,0,0,1-.858,1.326A2.507,2.507,0,0,1,49.17,13.553Zm5.5,0a2.794,2.794,0,0,1-1.6-.429,1.786,1.786,0,0,1-.777-1.206h.759a1.12,1.12,0,0,0,.531.715,2.271,2.271,0,0,0,1.086.213,1.9,1.9,0,0,0,.915-.192.6.6,0,0,0,.353-.54.455.455,0,0,0-.179-.362,1.11,1.11,0,0,0-.384-.21q-.206-.062-.706-.188c-.081-.018-.137-.032-.179-.045a5.645,5.645,0,0,1-1.528-.545.928.928,0,0,1-.42-.84,1.265,1.265,0,0,1,.547-1.088,2.834,2.834,0,0,1,2.841-.023,1.66,1.66,0,0,1,.693,1.041h-.75q-.268-.706-1.322-.706a1.805,1.805,0,0,0-.92.2.6.6,0,0,0-.339.523.425.425,0,0,0,.277.406,7.406,7.406,0,0,0,1.108.344q.392.1.594.152t.482.152a1.978,1.978,0,0,1,.416.188,2.034,2.034,0,0,1,.277.227.735.735,0,0,1,.2.313,1.356,1.356,0,0,1,.054.4,1.261,1.261,0,0,1-.577,1.112,2.526,2.526,0,0,1-1.449.389Z" transform="translate(79.723 12.009)" fill="#404041"/><g transform="translate(0)"><path d="M569.341,306.915l-.136-.227-.136-.227-.136-.227-.136-.227-.136-.227-.136-.227-.136-.227-.136-.227-.136-.227-.136-.227-.136-.227-.136-.227-.136-.227-.136-.227-.136-.227-.136-.227-.136-.227-.136-.227-.136-.227-.136-.227-.136-.227-.136-.227-.136-.227-.136-.227-.136-.227-.136-.227-.136-.227-.136-.227-.136-.227-.136-.227-.136-.227-.136-.227-.136-.227-.136-.227-.136-.227-.136-.227-.136-.227-.136-.227-.136-.227-.136-.227-.136-.227-.136-.227-.136-.227-.136-.227-.136-.227-.136-.227-.136-.227-.136-.227-.136-.227-.136-.227-.136-.227-.136-.227-.136-.227-.136-.227-.136-.227-.136-.227-.136-.227-.136-.227-.75-1.228-.75,1.228-.136.227-.136.227-.136.227-.136.227-.136.227-.136.227-.136.227-.136.227-.136.227-.136.227-.136.227-.136.227-.136.227-.136.227-.136.227-.136.227-.136.227-.136.227-.136.227-.136.227-.136.227-.136.227-.136.227-.136.227-.136.227-.136.227-.136.227-.136.227-.136.227-.136.227-.136.227-.136.227-.136.227-.136.227-.136.227-.136.227-.136.227-.136.227-.136.227-.136.227-.136.227-.136.227-.136.227-.136.227-.136.227-.136.227-.136.227-.136.227-.136.227-.136.227-.136.227-.136.227-.136.227-.136.227-.659,1.046h2.819l.114-.182.136-.227.136-.227.136-.227.136-.227.136-.227.136-.227.136-.227.136-.227.136-.227.159-.25h8.663l.159.2.159.25.136.227.136.227.136.227.136.227.136.227.136.227.136.227.136.227.114.159h2.8ZM558,302.3l.2-.318.136-.227.136-.227.136-.227.136-.227.136-.227.136-.227.136-.227.136-.227.136-.227.136-.227.136-.227.136-.227.136-.227.136-.227.136-.227.136-.227.136-.227.136-.227.136-.227.091-.136.091.136.136.227.136.227.136.227.136.227.136.227.136.227.136.227.136.227.136.227.136.227.136.227.136.227.136.227.137.227.136.227.136.227.136.227.136.227.136.227.182.341Z" transform="translate(-432.919 -291.909)" fill="url(#a)"/><path d="M489.824,298.079c0-.068-.023-.159-.023-.227a.773.773,0,0,1-.023-.227c-.023-.068-.023-.159-.045-.227a.809.809,0,0,1-.045-.227c-.023-.068-.045-.159-.068-.227a481,481,0,0,1-.182-.455c-.045-.068-.068-.159-.114-.227a1.064,1.064,0,0,1-.114-.227,1.383,1.383,0,0,0-.159-.227,1.38,1.38,0,0,1-.159-.227,4.076,4.076,0,0,0-3.16-1.478H475.5v14.643h2.387l-.023-.159v-6.116h5.548l3.5,5.8h2.933l-3.524-5.8s.637-.25.864-.341a2.826,2.826,0,0,0,.455-.227c.114-.068.227-.136.364-.227.091-.068.182-.136.3-.227a2.247,2.247,0,0,0,.25-.227,2.047,2.047,0,0,0,.2-.227,4.438,4.438,0,0,0,.341-.455,2.015,2.015,0,0,0,.136-.227.711.711,0,0,0,.114-.227,2.112,2.112,0,0,0,.114-.227,2.375,2.375,0,0,0,.091-.227,1.57,1.57,0,0,1,.091-.227c.023-.068.045-.136.068-.227a.673.673,0,0,0,.045-.227c.023-.068.023-.136.045-.227a.7.7,0,0,0,.023-.227c0-.068.023-.136.023-.227v-.227C489.824,298.238,489.824,298.17,489.824,298.079Zm-2.365.455c-.023.068-.023.159-.045.227s-.046.159-.068.227a.949.949,0,0,1-.091.227,2,2,0,0,1-.136.227.892.892,0,0,1-.182.227,2.4,2.4,0,0,1-.273.227,3.162,3.162,0,0,1-.477.25,1.156,1.156,0,0,1-.455.091h-7.867l.023-.159v-3.5h7.844a1.859,1.859,0,0,1,.8.182,1.025,1.025,0,0,1,.318.227,1.078,1.078,0,0,1,.227.227,1.965,1.965,0,0,1,.159.227.711.711,0,0,1,.114.227c.023.068.046.136.068.227a.673.673,0,0,1,.045.227.7.7,0,0,1,.023.227v.045C487.46,298.4,487.46,298.466,487.46,298.534Z" transform="translate(-373.888 -293.145)" fill="url(#a)"/><path d="M170.347,303.127c0-.068-.023-.159-.023-.227a.774.774,0,0,1-.023-.227c-.023-.068-.023-.159-.045-.227a.807.807,0,0,1-.045-.227c-.023-.068-.045-.159-.068-.227a.95.95,0,0,0-.091-.227c-.023-.068-.068-.159-.091-.227-.045-.068-.068-.159-.114-.227s-.091-.159-.136-.227a1.381,1.381,0,0,0-.159-.227,1.594,1.594,0,0,0-.182-.227,1.844,1.844,0,0,0-.2-.227l-.227-.227a2.407,2.407,0,0,0-.273-.227c-.114-.091-.227-.159-.318-.227a2.592,2.592,0,0,0-.432-.227,2.046,2.046,0,0,0-.637-.182,9.962,9.962,0,0,0-1.046-.068h-6.071a1.484,1.484,0,0,1-.546-.136,2.679,2.679,0,0,1-.432-.25,1.192,1.192,0,0,1-.25-.227,2.072,2.072,0,0,1-.318-.455.68.68,0,0,1-.091-.227c-.023-.068-.045-.136-.068-.227a.7.7,0,0,1-.023-.227c0-.046-.023-.091-.023-.159v-.068c0-.068.023-.159.023-.227.023-.068.023-.159.045-.227a.95.95,0,0,1,.091-.227c.045-.068.068-.159.114-.227a.818.818,0,0,1,.159-.227,1.078,1.078,0,0,1,.227-.227,2.957,2.957,0,0,1,.341-.227,1.617,1.617,0,0,1,.728-.159h8.708l1.5-2.41-10.209.023a4.076,4.076,0,0,0-3.16,1.478,1.972,1.972,0,0,0-.159.227c-.045.068-.091.136-.159.227a4735.4,4735.4,0,0,1-.227.455,2.362,2.362,0,0,0-.091.227,1.57,1.57,0,0,1-.091.227c-.023.068-.045.136-.068.227a.673.673,0,0,0-.045.227c-.023.068-.023.136-.045.227a5733.25,5733.25,0,0,0-.045.455c0,.068-.023.136-.023.227v.227c0,.068.023.159.023.227s.023.159.023.227c.023.068.023.159.045.227s.023.159.045.227a.808.808,0,0,1,.045.227c.023.068.045.159.068.227a.949.949,0,0,0,.091.227,1.063,1.063,0,0,0,.114.227,1.062,1.062,0,0,1,.114.227,1.206,1.206,0,0,0,.136.227c.045.068.114.159.159.227a1.592,1.592,0,0,0,.182.227c.068.068.136.159.2.227a2.141,2.141,0,0,1,.227.227,2.412,2.412,0,0,0,.273.227,2.76,2.76,0,0,0,.318.227,2.592,2.592,0,0,0,.432.227,3.988,3.988,0,0,0,.682.227,5.846,5.846,0,0,0,.909.114l6.094-.023a1.959,1.959,0,0,1,.637.068.965.965,0,0,1,.387.227,2.261,2.261,0,0,1,.25.227,1.99,1.99,0,0,1,.182.227.711.711,0,0,1,.114.227,2.359,2.359,0,0,1,.091.227.673.673,0,0,1,.045.227.7.7,0,0,1,.023.227v.2c0,.068-.023.159-.023.227-.023.068-.023.159-.045.227a.951.951,0,0,1-.091.227c-.045.068-.068.159-.114.227a.89.89,0,0,1-.182.227,1.192,1.192,0,0,1-.25.227,2.16,2.16,0,0,1-.387.227,1.614,1.614,0,0,1-.659.114l-8.777-.023L156,307.629l10.118.046a5.264,5.264,0,0,0,1.046-.114,2.132,2.132,0,0,0,.637-.227,2.59,2.59,0,0,0,.432-.227,2.968,2.968,0,0,0,.341-.227,2.409,2.409,0,0,0,.273-.227,1.078,1.078,0,0,0,.227-.227,2.049,2.049,0,0,0,.2-.227c.045-.068.114-.136.182-.227a1.968,1.968,0,0,0,.159-.227,2.007,2.007,0,0,0,.136-.227.711.711,0,0,0,.114-.227.68.68,0,0,0,.091-.227,1.567,1.567,0,0,1,.091-.227c.023-.068.045-.136.068-.227a.673.673,0,0,0,.045-.227c.023-.068.023-.136.045-.227a1719.727,1719.727,0,0,1,.045-.455c0-.068.023-.136.023-.227v-.2C170.347,303.264,170.347,303.2,170.347,303.127Z" transform="translate(-127.033 -292.372)" fill="url(#a)"/><path d="M409.023,294.8H397.2v2.387h10.414Z" transform="translate(-313.391 -293.686)" fill="url(#a)"/><path d="M328.187,306.35V294.8H325.8v14.052h10.459l1.5-2.342h-9.572Z" transform="translate(-258.225 -293.686)" fill="url(#a)"/><path d="M254.456,298.2c0-.068-.023-.159-.023-.227s-.023-.159-.023-.227c-.023-.068-.023-.159-.045-.227a.807.807,0,0,1-.045-.227c-.023-.068-.045-.159-.068-.227a.951.951,0,0,0-.091-.227c-.023-.068-.068-.159-.091-.227-.045-.068-.068-.159-.114-.227a1.065,1.065,0,0,1-.114-.227,1.379,1.379,0,0,0-.159-.227c-.045-.068-.114-.159-.159-.227a4.226,4.226,0,0,0-3.206-1.5h-5.957a4.226,4.226,0,0,0-3.206,1.5,1.972,1.972,0,0,0-.159.227c-.045.068-.091.136-.159.227a1578.467,1578.467,0,0,1-.227.455,2.359,2.359,0,0,0-.091.227,1.569,1.569,0,0,1-.091.227c-.023.068-.045.136-.068.227a.673.673,0,0,0-.045.227c-.023.068-.023.136-.045.227a3439.488,3439.488,0,0,0-.045.455c0,.068-.023.136-.023.227v1.887h2.365v-1.3h0v-.591c0-.068.023-.159.023-.227.023-.068.023-.159.045-.227a.949.949,0,0,1,.091-.227,1.061,1.061,0,0,1,.114-.227.816.816,0,0,1,.159-.227,1.079,1.079,0,0,1,.227-.227,1.612,1.612,0,0,1,.318-.227,2,2,0,0,1,.841-.2h5.957a1.682,1.682,0,0,1,.819.2,1.025,1.025,0,0,1,.318.227,1.079,1.079,0,0,1,.227.227,1.961,1.961,0,0,1,.159.227.71.71,0,0,1,.114.227,1.571,1.571,0,0,0,.091.227.673.673,0,0,1,.045.227.7.7,0,0,1,.023.227v1.364h0v.568H254.5v-1.91A.49.49,0,0,1,254.456,298.2Z" transform="translate(-192.088 -293.222)" fill="url(#a)"/><path d="M254.3,331.3h-2.365v1.637a.629.629,0,0,1-.023.2c-.023.068-.023.159-.046.227s-.045.159-.068.227a.951.951,0,0,1-.091.227,2,2,0,0,1-.136.227.891.891,0,0,1-.182.227,2.272,2.272,0,0,1-.25.227,2.6,2.6,0,0,1-.432.227,2.286,2.286,0,0,1-.568.091h-5.957a2.286,2.286,0,0,1-.568-.091,1.133,1.133,0,0,1-.432-.227,1.193,1.193,0,0,1-.25-.227,2.074,2.074,0,0,1-.318-.455.681.681,0,0,1-.091-.227c-.023-.068-.045-.136-.068-.227-.023-.068-.023-.136-.045-.227a.629.629,0,0,1-.023-.2v-1.069h0V331.3H240v1.842c0,.068.023.159.023.227a.773.773,0,0,1,.023.227c.023.068.023.159.045.227s.023.159.045.227.045.159.068.227a21150.4,21150.4,0,0,1,.182.455,1.063,1.063,0,0,0,.114.227,1.063,1.063,0,0,1,.114.227c.045.068.091.159.136.227s.114.159.159.227a1.592,1.592,0,0,0,.182.227c.068.068.136.159.2.227.091.068.159.159.25.227a1.459,1.459,0,0,0,.3.227,2.96,2.96,0,0,0,.341.227,4.249,4.249,0,0,0,.455.227,6.391,6.391,0,0,0,.7.227,5.568,5.568,0,0,0,.864.091h5.957a3.6,3.6,0,0,0,.864-.091,2.557,2.557,0,0,0,.7-.227,4.256,4.256,0,0,0,.455-.227,2.965,2.965,0,0,0,.341-.227c.091-.068.182-.136.3-.227a2.261,2.261,0,0,0,.25-.227,2.049,2.049,0,0,0,.2-.227,1.99,1.99,0,0,0,.182-.227,1.965,1.965,0,0,0,.159-.227,2,2,0,0,0,.136-.227.711.711,0,0,0,.114-.227,2.1,2.1,0,0,0,.114-.227,2.365,2.365,0,0,0,.091-.227,1.564,1.564,0,0,1,.091-.227c.023-.068.045-.136.068-.227a.673.673,0,0,0,.045-.227c.023-.068.023-.136.045-.227a3438.51,3438.51,0,0,1,.045-.455v-1.273h0V331.3Z" transform="translate(-191.934 -321.887)" fill="url(#a)"/><path d="M399.587,322.544v-4.456h8.686l-.023-2.387H397.2v9.322h11.073l1.455-2.342H399.587Z" transform="translate(-313.391 -309.834)" fill="url(#a)"/><path d="M9.1,16.3a3.6,3.6,0,0,1,3.425-2.319h1.933L12.142,16.3Zm2.387-3.524-4.282-.023a2.293,2.293,0,0,1,2.12-2.137h8.611l-2.182,2.16ZM0,9.413,2.319,7.071H21.4L19.1,9.413Zm3.547-3.57L5.912,3.5h8.344v.32A2.438,2.438,0,0,1,11.8,5.843Zm3.524-3.5L9.413,0h3.024A3.6,3.6,0,0,1,9,2.342Z" transform="translate(0)" fill="url(#a)"/></g></svg>