<svg xmlns="http://www.w3.org/2000/svg" width="650" height="96" viewBox="0 0 650 96"><g transform="translate(-404 -4445.5)" opacity="0.25"><path d="M306.59,312H281.661a27.137,27.137,0,0,1-12.075-2.85l-3.689-1.843A9.009,9.009,0,0,1,258,312h-9a9.009,9.009,0,0,1-9-9V255a9.009,9.009,0,0,1,9-9h12.969L273.21,217.89A3,3,0,0,1,275.995,216h1.74A15,15,0,0,1,292.66,232.5L291.31,246h23.685a15.017,15.017,0,0,1,15,15,27.788,27.788,0,0,1-.8,6.63l-8.411,34.188c-.027.1-.057.209-.093.309a15.053,15.053,0,0,1-14.1,9.873ZM267,301.15l5.275,2.637a21.1,21.1,0,0,0,9.39,2.217H306.59A9.028,9.028,0,0,0,315,300.221l8.369-34.02A21.741,21.741,0,0,0,324,261a9.009,9.009,0,0,0-9-9H288a3,3,0,0,1-2.985-3.3l1.68-16.806a9,9,0,0,0-8.668-9.891L267,249.582ZM249,252a3,3,0,0,0-3,3v48a3,3,0,0,0,3,3h9a3,3,0,0,0,3-3V252Z" transform="translate(164.005 4229.496)" fill="#f6f8fa"/><path d="M306.59,312H281.661a27.137,27.137,0,0,1-12.075-2.85l-3.689-1.843A9.009,9.009,0,0,1,258,312h-9a9.009,9.009,0,0,1-9-9V255a9.009,9.009,0,0,1,9-9h12.969L273.21,217.89A3,3,0,0,1,275.995,216h1.74A15,15,0,0,1,292.66,232.5L291.31,246h23.685a15.017,15.017,0,0,1,15,15,27.788,27.788,0,0,1-.8,6.63l-8.411,34.188c-.027.1-.057.209-.093.309a15.053,15.053,0,0,1-14.1,9.873ZM267,301.15l5.275,2.637a21.1,21.1,0,0,0,9.39,2.217H306.59A9.028,9.028,0,0,0,315,300.221l8.369-34.02A21.741,21.741,0,0,0,324,261a9.009,9.009,0,0,0-9-9H288a3,3,0,0,1-2.985-3.3l1.68-16.806a9,9,0,0,0-8.668-9.891L267,249.582ZM249,252a3,3,0,0,0-3,3v48a3,3,0,0,0,3,3h9a3,3,0,0,0,3-3V252Z" transform="translate(304.005 4229.496)" fill="#f6f8fa"/><path d="M306.59,312H281.661a27.137,27.137,0,0,1-12.075-2.85l-3.689-1.843A9.009,9.009,0,0,1,258,312h-9a9.009,9.009,0,0,1-9-9V255a9.009,9.009,0,0,1,9-9h12.969L273.21,217.89A3,3,0,0,1,275.995,216h1.74A15,15,0,0,1,292.66,232.5L291.31,246h23.685a15.017,15.017,0,0,1,15,15,27.788,27.788,0,0,1-.8,6.63l-8.411,34.188c-.027.1-.057.209-.093.309a15.053,15.053,0,0,1-14.1,9.873ZM267,301.15l5.275,2.637a21.1,21.1,0,0,0,9.39,2.217H306.59A9.028,9.028,0,0,0,315,300.221l8.369-34.02A21.741,21.741,0,0,0,324,261a9.009,9.009,0,0,0-9-9H288a3,3,0,0,1-2.985-3.3l1.68-16.806a9,9,0,0,0-8.668-9.891L267,249.582ZM249,252a3,3,0,0,0-3,3v48a3,3,0,0,0,3,3h9a3,3,0,0,0,3-3V252Z" transform="translate(444.005 4229.496)" fill="#f6f8fa"/><path d="M306.59,312H281.661a27.137,27.137,0,0,1-12.075-2.85l-3.689-1.843A9.009,9.009,0,0,1,258,312h-9a9.009,9.009,0,0,1-9-9V255a9.009,9.009,0,0,1,9-9h12.969L273.21,217.89A3,3,0,0,1,275.995,216h1.74A15,15,0,0,1,292.66,232.5L291.31,246h23.685a15.017,15.017,0,0,1,15,15,27.788,27.788,0,0,1-.8,6.63l-8.411,34.188c-.027.1-.057.209-.093.309a15.053,15.053,0,0,1-14.1,9.873ZM267,301.15l5.275,2.637a21.1,21.1,0,0,0,9.39,2.217H306.59A9.028,9.028,0,0,0,315,300.221l8.369-34.02A21.741,21.741,0,0,0,324,261a9.009,9.009,0,0,0-9-9H288a3,3,0,0,1-2.985-3.3l1.68-16.806a9,9,0,0,0-8.668-9.891L267,249.582ZM249,252a3,3,0,0,0-3,3v48a3,3,0,0,0,3,3h9a3,3,0,0,0,3-3V252Z" transform="translate(584.005 4229.496)" fill="#f6f8fa"/><path d="M306.59,312H281.661a27.137,27.137,0,0,1-12.075-2.85l-3.689-1.843A9.009,9.009,0,0,1,258,312h-9a9.009,9.009,0,0,1-9-9V255a9.009,9.009,0,0,1,9-9h12.969L273.21,217.89A3,3,0,0,1,275.995,216h1.74A15,15,0,0,1,292.66,232.5L291.31,246h23.685a15.017,15.017,0,0,1,15,15,27.788,27.788,0,0,1-.8,6.63l-8.411,34.188c-.027.1-.057.209-.093.309a15.053,15.053,0,0,1-14.1,9.873ZM267,301.15l5.275,2.637a21.1,21.1,0,0,0,9.39,2.217H306.59A9.028,9.028,0,0,0,315,300.221l8.369-34.02A21.741,21.741,0,0,0,324,261a9.009,9.009,0,0,0-9-9H288a3,3,0,0,1-2.985-3.3l1.68-16.806a9,9,0,0,0-8.668-9.891L267,249.582ZM249,252a3,3,0,0,0-3,3v48a3,3,0,0,0,3,3h9a3,3,0,0,0,3-3V252Z" transform="translate(724.005 4229.496)" fill="#f6f8fa"/></g></svg>